<?xml version="1.0" encoding="utf-8"?>
<svg version="1.1" xmlns:xlink="http://www.w3.org/1999/xlink" width="445px" height="170px" xmlns="http://www.w3.org/2000/svg">
  <defs>
    <mask fill="white" id="clip1">
      <path d="M 0 170  L 0 61  L 0 0  L 445 0  L 445 65  L 445 170  L 0 170  Z " fill-rule="evenodd" />
    </mask>
  </defs>
  <g transform="matrix(1 0 0 1 -559 -1004 )">
    <path d="M 0 170  L 0 61  L 0 0  L 445 0  L 445 65  L 445 170  L 0 170  Z " fill-rule="nonzero" fill="#ffffff" stroke="none" transform="matrix(1 0 0 1 559 1004 )" />
    <path d="M 0 170  L 0 61  L 0 0  L 445 0  L 445 65  L 445 170  L 0 170  Z " stroke-width="2" stroke="#ffffff" fill="none" transform="matrix(1 0 0 1 559 1004 )" mask="url(#clip1)" />
  </g>
</svg>